<?xml version="1.0" standalone="no"?>
<!DOCTYPE svg PUBLIC "-//W3C//DTD SVG 20010904//EN"
 "http://www.w3.org/TR/2001/REC-SVG-20010904/DTD/svg10.dtd">
<svg version="1.0" xmlns="http://www.w3.org/2000/svg"
 width="300.000000pt" height="300.000000pt" viewBox="0 0 300.000000 300.000000"
 preserveAspectRatio="xMidYMid meet">
<metadata>
Created by potrace 1.14, written by Peter Selinger 2001-2017
</metadata>
<g transform="translate(0.000000,300.000000) scale(0.100000,-0.100000)"
fill="#000000" stroke="none">
<path d="M1503 2479 c-152 -25 -284 -105 -368 -223 -43 -61 -95 -158 -110
-204 -6 -22 -5 -22 42 7 132 81 487 173 665 172 95 -1 278 -30 316 -50 11 -6
34 -32 51 -57 24 -36 31 -59 31 -95 0 -42 -4 -51 -32 -73 l-33 -26 -3 23 c-8
60 -159 109 -337 108 -159 0 -398 -54 -595 -135 l-65 -27 -22 28 c-14 17 -23
42 -23 62 0 31 -1 33 -13 17 -12 -17 -15 -17 -43 7 -46 38 -69 47 -126 47 -78
0 -95 -14 -147 -115 -26 -49 -56 -106 -69 -125 -33 -52 -30 -128 8 -208 40
-86 86 -148 127 -172 51 -30 157 -43 244 -31 41 5 74 9 75 8 4 -7 -30 -199
-51 -290 -14 -59 -25 -116 -25 -127 0 -30 17 -24 23 8 3 15 11 41 18 57 l12
30 7 -25 c13 -41 12 -278 -1 -286 -6 -3 -34 -8 -63 -10 -89 -6 -230 -26 -246
-35 -9 -5 6 -9 41 -9 96 0 246 -50 333 -110 84 -58 186 -161 231 -233 17 -26
59 -86 94 -132 35 -47 61 -88 58 -92 -4 -3 -41 1 -82 9 -53 10 -75 11 -75 3 0
-7 41 -16 103 -24 96 -12 106 -11 161 8 71 25 66 25 68 4 1 -10 4 9 7 42 l6
60 12 -55 c6 -31 11 -43 12 -29 1 21 13 34 59 61 102 63 195 57 270 -14 49
-49 38 -19 -17 43 -27 30 -59 78 -71 107 -17 39 -44 72 -99 123 -42 38 -92 92
-111 121 -19 28 -42 54 -50 56 -8 3 0 -11 17 -32 18 -20 42 -54 53 -76 11 -22
24 -40 29 -40 21 0 124 -106 146 -150 l24 -47 -46 -7 c-26 -3 -80 -24 -120
-46 -41 -22 -76 -40 -78 -40 -1 0 -5 11 -7 25 -3 16 5 39 23 67 16 24 29 52
29 63 0 30 -86 198 -118 228 -15 15 -45 33 -67 40 -21 8 -41 19 -43 25 -3 9
49 12 201 12 220 0 279 9 323 51 13 12 24 32 24 44 0 11 6 27 12 33 10 10 10
17 0 33 -10 15 -10 24 -2 34 34 41 29 173 -11 265 -26 61 -35 60 -14 -1 27
-76 36 -129 29 -180 -4 -27 -10 -46 -14 -44 -5 3 -22 -10 -38 -29 -23 -26 -41
-36 -76 -41 l-46 -7 0 40 c0 68 -20 139 -50 177 -37 46 -42 27 -13 -47 25 -61
48 -166 39 -176 -13 -13 -203 -31 -351 -33 -137 -2 -165 0 -198 15 -79 38
-120 123 -98 204 23 87 73 191 144 303 71 109 74 113 134 139 34 14 65 29 69
33 4 4 -33 7 -83 7 -101 0 -149 12 -158 41 -8 25 2 57 23 68 23 12 361 53 380
46 12 -4 14 -18 9 -68 -3 -34 -13 -81 -21 -105 -16 -45 -17 -40 23 -247 13
-67 50 -135 74 -135 5 0 5 6 -2 13 -6 8 -9 16 -6 19 3 3 -6 29 -19 59 -55 119
-72 262 -41 349 8 23 15 58 15 78 l0 35 71 -5 c82 -6 122 -29 127 -73 5 -37
-20 -55 -72 -54 -40 1 -40 1 -11 10 17 4 36 17 42 28 11 17 9 22 -9 36 -13 8
-28 15 -34 15 -18 0 -77 -31 -101 -53 -29 -26 -32 -52 -4 -37 25 13 53 14 32
1 -11 -7 -3 -15 33 -33 46 -22 50 -27 111 -155 35 -73 66 -133 68 -133 3 0 -1
21 -9 47 -8 25 -14 70 -14 99 0 49 2 55 30 69 17 9 70 51 119 95 141 127 194
251 154 365 -25 69 -69 99 -138 92 l-50 -5 -1 56 c-1 64 -34 193 -65 253 -48
95 -130 158 -239 183 -71 17 -250 20 -337 5z m292 -9 c91 -15 198 -72 234
-124 27 -38 81 -164 81 -187 0 -5 -16 3 -36 16 -84 57 -263 84 -437 66 -173
-19 -399 -79 -529 -142 -32 -15 -58 -25 -58 -22 0 18 95 176 129 214 128 146
376 218 616 179z m-117 -446 c48 -14 66 -15 113 -5 30 6 67 11 82 11 33 0 129
-36 157 -58 l21 -17 -31 -83 c-16 -45 -30 -85 -30 -87 0 -2 16 6 35 20 52 34
102 50 119 35 9 -7 16 -7 20 -1 4 6 18 6 38 0 41 -11 50 -3 12 11 -16 6 -57
10 -91 8 -33 -2 -59 0 -56 5 2 4 15 7 29 7 14 0 23 3 21 8 -9 13 136 14 145 0
14 -23 8 -102 -11 -143 -37 -82 -203 -268 -221 -248 -13 13 -22 73 -12 73 16
0 -3 66 -27 96 -16 20 -20 36 -16 54 l7 25 -29 -27 c-31 -30 -43 -33 -71 -19
-9 5 -34 17 -54 27 -21 10 -38 22 -38 26 0 7 75 -23 87 -35 3 -4 13 -7 22 -7
14 0 14 2 1 11 -12 8 -11 9 6 5 22 -7 42 10 63 52 10 18 8 26 -8 43 -11 12
-23 35 -26 50 -4 16 -11 29 -16 29 -12 0 -12 -5 6 -47 8 -19 15 -39 15 -44 0
-5 -37 -9 -81 -9 l-81 0 6 28 c3 15 8 37 12 50 3 12 2 22 -3 22 -12 0 -35
-113 -27 -134 5 -13 -2 -16 -44 -16 l-51 0 9 30 c6 20 4 39 -5 57 -7 16 -15
48 -18 71 -5 41 -4 44 16 38 21 -5 21 -5 3 9 -68 51 -215 -12 -326 -138 l-33
-38 23 -24 c13 -14 38 -30 57 -37 18 -7 33 -16 33 -20 0 -4 14 -8 30 -8 30 0
41 14 18 23 -8 3 -6 6 5 6 9 1 17 -4 17 -10 0 -6 8 -8 18 -5 59 18 72 18 66 3
-3 -9 -22 -17 -47 -20 -23 -2 -77 -12 -121 -22 -72 -16 -81 -16 -112 -2 -73
35 -89 126 -38 224 40 76 89 110 205 138 116 28 137 29 207 9z m-808 -63 c0
-5 -12 -8 -26 -8 -18 0 -22 2 -13 8 18 11 39 11 39 0z m104 -38 c7 -17 6 -17
-11 0 -10 10 -27 25 -38 33 -18 13 -16 13 11 0 17 -8 35 -23 38 -33z m667 -33
c4 -30 10 -62 13 -71 6 -13 -11 -17 -121 -28 -130 -12 -173 -12 -173 0 0 11
82 83 123 108 43 26 114 51 137 48 10 -2 17 -19 21 -57z m-727 39 c-2 -3 9
-12 24 -20 15 -8 31 -20 36 -28 7 -11 10 -11 18 0 7 10 8 6 4 -13 -5 -23 -2
-30 22 -42 21 -11 32 -27 40 -58 20 -79 21 -104 6 -132 -18 -35 -18 -46 -1
-21 13 16 15 14 20 -25 7 -53 -3 -74 -46 -97 -78 -42 -207 -12 -262 61 -35 46
-65 127 -65 174 0 54 27 149 51 184 20 28 24 29 89 26 38 -2 66 -6 64 -9z
m1284 -26 c-10 -2 -26 -2 -35 0 -10 3 -2 5 17 5 19 0 27 -2 18 -5z m-581 -138
c-31 -27 -70 -32 -114 -13 -27 11 -27 12 32 24 33 6 71 12 85 13 l25 0 -28
-24z m293 -5 c0 -5 -13 -10 -29 -10 -17 0 -33 5 -36 10 -4 6 8 10 29 10 20 0
36 -4 36 -10z m-122 -46 c41 -11 23 -19 -38 -16 -33 2 -58 8 -54 13 6 10 58
12 92 3z m157 -114 c3 -6 -1 -7 -9 -4 -18 7 -21 14 -7 14 6 0 13 -4 16 -10z
m140 -699 c-4 -12 -15 -21 -26 -21 -11 0 -17 5 -14 10 4 6 12 7 18 4 7 -4 9
-4 5 1 -8 8 11 39 19 31 3 -2 2 -14 -2 -25z m10 -60 c0 -9 -27 -20 -85 -32
-47 -9 -105 -24 -129 -33 -28 -10 -77 -16 -140 -16 -126 0 -315 20 -302 33 5
5 96 13 203 18 106 5 243 18 303 28 124 22 150 22 150 2z m-702 -38 c-7 -2
-21 -2 -30 0 -10 3 -4 5 12 5 17 0 24 -2 18 -5z m677 -15 c0 -21 -13 -34 -50
-54 -29 -16 -54 -18 -150 -17 -155 2 -364 14 -370 20 -3 3 57 3 133 1 93 -4
163 -1 215 8 94 17 114 16 47 -1 -32 -9 -41 -13 -25 -14 32 -2 190 41 190 51
0 4 -12 3 -26 -2 -37 -15 -44 -11 -9 5 38 18 45 18 45 3z m-83 -24 c-3 -3 -12
-4 -19 -1 -8 3 -5 6 6 6 11 1 17 -2 13 -5z m-292 -386 c-8 -46 4 -45 20 2 8
22 14 27 25 20 12 -8 12 -12 0 -37 -20 -37 -142 -165 -175 -183 -25 -13 -28
-13 -46 10 -23 31 -24 40 -1 40 24 0 122 49 122 61 0 13 -6 12 -48 -10 -20
-10 -54 -23 -74 -29 -36 -10 -39 -9 -58 19 l-21 28 23 5 c13 3 43 8 68 11 55
7 146 57 155 85 11 35 17 22 10 -22z m-35 -173 c-6 -7 -26 -18 -43 -24 l-32
-11 40 34 c37 32 61 33 35 1z"/>
<path d="M1762 1955 c0 -16 2 -22 5 -12 2 9 2 23 0 30 -3 6 -5 -1 -5 -18z"/>
<path d="M1851 1920 c-24 -11 -41 -23 -38 -26 4 -4 23 1 43 11 22 10 52 15 76
13 34 -3 37 -2 22 9 -25 18 -52 16 -103 -7z"/>
<path d="M2163 1765 c0 -27 2 -38 4 -22 2 15 2 37 0 50 -2 12 -4 0 -4 -28z"/>
<path d="M2065 1570 c-16 -7 -17 -9 -3 -9 9 -1 20 4 23 9 7 11 7 11 -20 0z"/>
<path d="M858 1873 c7 -3 16 -2 19 1 4 3 -2 6 -13 5 -11 0 -14 -3 -6 -6z"/>
<path d="M901 1774 c-12 -15 -21 -32 -21 -38 0 -6 6 -2 12 9 6 11 18 28 26 38
8 9 12 17 9 17 -3 0 -15 -12 -26 -26z"/>
<path d="M872 1700 c0 -14 2 -19 5 -12 2 6 2 18 0 25 -3 6 -5 1 -5 -13z"/>
<path d="M874 1635 c4 -16 12 -34 17 -40 5 -5 4 6 -2 25 -15 45 -24 54 -15 15z"/>
<path d="M1452 1615 c-22 -10 -32 -20 -30 -32 2 -9 6 -15 10 -12 4 2 14 -5 22
-16 13 -17 26 -20 103 -20 48 0 94 -4 101 -9 24 -15 25 2 2 31 -14 19 -44 35
-88 50 -79 26 -78 26 -120 8z m3 -25 c-3 -5 -12 -10 -18 -10 -7 0 -6 4 3 10
19 12 23 12 15 0z"/>
<path d="M645 701 c-42 -25 -112 -106 -120 -139 -3 -14 -26 -48 -51 -74 -24
-26 -50 -60 -56 -75 -7 -15 -25 -46 -40 -67 -16 -21 -28 -45 -28 -53 0 -7 -33
-48 -72 -91 -64 -68 -138 -186 -125 -198 2 -3 17 21 33 53 26 52 36 61 91 89
61 30 92 50 63 40 -8 -2 -28 -7 -43 -11 l-29 -6 27 35 c28 37 86 79 150 110
95 45 268 59 395 32 103 -22 211 -57 204 -67 -3 -5 2 -6 10 -3 8 3 39 -6 68
-21 69 -35 168 -75 185 -75 26 0 12 19 -19 25 -18 4 -90 36 -160 71 -309 155
-543 162 -740 22 -16 -11 -28 -16 -28 -13 0 15 95 162 124 193 32 35 112 80
178 101 46 15 62 35 21 25 -15 -3 -54 -17 -85 -29 -32 -12 -58 -20 -58 -16 0
21 83 120 116 138 21 13 35 23 29 23 -5 0 -24 -8 -40 -19z"/>
<path d="M950 570 c8 -5 22 -10 30 -10 13 0 13 1 0 10 -8 5 -22 10 -30 10 -13
0 -13 -1 0 -10z"/>
<path d="M1020 542 c0 -6 6 -12 13 -15 8 -3 62 -42 121 -86 123 -93 138 -91
23 2 -82 68 -157 114 -157 99z"/>
<path d="M1803 410 c0 -25 2 -35 4 -22 2 12 2 32 0 45 -2 12 -4 2 -4 -23z"/>
<path d="M1317 273 c-14 -13 -7 -45 8 -40 8 4 17 1 21 -5 11 -18 24 14 13 34
-10 18 -30 24 -42 11z"/>
<path d="M513 123 c19 -23 46 -60 59 -82 17 -30 29 -41 47 -41 22 0 23 2 17
42 -10 62 -26 72 -27 18 l0 -45 -17 25 c-9 14 -39 48 -66 75 -38 39 -41 41
-13 8z"/>
<path d="M1710 72 c0 -40 3 -72 8 -72 9 0 8 128 -1 137 -4 3 -7 -26 -7 -65z"/>
<path d="M2028 125 c-24 -85 -30 -116 -24 -122 10 -11 16 1 27 61 10 56 8 101
-3 61z"/>
<path d="M1650 104 c-34 -24 -91 -104 -74 -104 5 0 16 15 25 32 8 17 24 36 35
42 10 6 22 15 25 20 4 5 12 5 18 2 7 -5 11 1 11 13 0 25 3 26 -40 -5z"/>
<path d="M2129 68 c17 -71 19 -74 27 -65 6 6 -23 106 -36 120 -4 4 0 -20 9
-55z"/>
<path d="M1785 96 c28 -13 59 -33 69 -45 11 -11 24 -21 29 -21 6 0 0 11 -13
24 -23 26 -100 66 -122 65 -7 0 10 -10 37 -23z"/>
<path d="M1652 20 c0 -14 2 -19 5 -12 2 6 2 18 0 25 -3 6 -5 1 -5 -13z"/>
<path d="M1787 33 c-14 -13 -6 -33 13 -33 11 0 20 4 20 9 0 13 -26 32 -33 24z"/>
</g>
</svg>
